<svg width="197" height="190" viewBox="0 0 197 190" fill="none" xmlns="http://www.w3.org/2000/svg">
<circle opacity="0.3" cx="110.975" cy="86" r="86" fill="#E5EFFF"/>
<path opacity="0.9" d="M106.18 51.5394L108.555 47.4258C111.8 41.8059 118.986 39.8803 124.606 43.125C130.226 46.3697 132.152 53.5559 128.907 59.1758L126.532 63.2894C145.185 74.059 151.577 97.911 140.807 116.564L116.593 158.505C114.226 162.604 115.63 167.847 119.73 170.214C121.37 171.16 121.932 173.257 120.985 174.897L115.449 184.485C114.345 186.398 111.898 187.054 109.985 185.949L56.7247 155.199L3.4641 124.449C1.55093 123.345 0.895432 120.898 2 118.985L7.32143 109.768C8.38655 107.923 10.7455 107.291 12.5904 108.356C17.2025 111.019 23.1 109.439 25.7628 104.827L47.4413 67.2785C59.3155 46.7119 85.6139 39.6653 106.18 51.5394Z" fill="#E5EFFF"/>
<path opacity="0.9" d="M59.0679 159.346C56.9461 163.021 56.3712 167.388 57.4695 171.487C58.5678 175.586 61.2493 179.08 64.9243 181.202C68.5992 183.324 72.9665 183.899 77.0654 182.8C81.1643 181.702 84.6589 179.021 86.7807 175.346L72.9243 167.346L59.0679 159.346Z" fill="#E5EFFF"/>
<circle opacity="0.5" cx="51.4746" cy="23.5" r="6.5" fill="#C8DEFF"/>
<circle opacity="0.5" cx="156.475" cy="104.5" r="6.5" fill="#ABCDFF"/>
<circle cx="8.47461" cy="88.5" r="6" stroke="#ABCDFF"/>
</svg>
